<?xml version="1.0" encoding="UTF-8" standalone="no"?>
<svg
   xmlns:dc="http://purl.org/dc/elements/1.1/"
   xmlns:cc="http://creativecommons.org/ns#"
   xmlns:rdf="http://www.w3.org/1999/02/22-rdf-syntax-ns#"
   xmlns:svg="http://www.w3.org/2000/svg"
   xmlns="http://www.w3.org/2000/svg"
   xmlns:sodipodi="http://sodipodi.sourceforge.net/DTD/sodipodi-0.dtd"
   xmlns:inkscape="http://www.inkscape.org/namespaces/inkscape"
   sodipodi:docname="RijksLounge5.svg"
   inkscape:version="1.0 (4035a4f, 2020-05-01)"
   id="svg853"
   version="1.1"
   viewBox="0 0 297 210"
   height="210mm"
   width="297mm">
  <defs
     id="defs847" />
  <sodipodi:namedview
     inkscape:window-maximized="0"
     inkscape:window-y="23"
     inkscape:window-x="30"
     inkscape:window-height="755"
     inkscape:window-width="1250"
     showgrid="false"
     inkscape:document-rotation="0"
     inkscape:current-layer="layer1"
     inkscape:document-units="mm"
     inkscape:cy="516.09202"
     inkscape:cx="424.5795"
     inkscape:zoom="0.62716656"
     inkscape:pageshadow="2"
     inkscape:pageopacity="0.0"
     borderopacity="1.0"
     bordercolor="#666666"
     pagecolor="#ffffff"
     id="base" />
  <metadata
     id="metadata850">
    <rdf:RDF>
      <cc:Work
         rdf:about="">
        <dc:format>image/svg+xml</dc:format>
        <dc:type
           rdf:resource="http://purl.org/dc/dcmitype/StillImage" />
        <dc:title />
      </cc:Work>
    </rdf:RDF>
  </metadata>
  <g
     id="layer1"
     inkscape:groupmode="layer"
     inkscape:label="Layer 1">
    <path
       id="path2448"
       d="m 120.07793,146.14356 c -2.05419,-1.12356 -2.11113,-2.31698 -0.39471,-8.27285 l 1.27215,-4.41432 -2.52286,-2.65592 c -5.93162,-6.24445 -9.15248,-13.1615 -9.84956,-21.15271 -0.327,-3.74868 0.35807,-6.34506 2.26069,-8.56783 1.99843,-2.334727 3.86637,-3.176107 7.1026,-3.199237 1.89066,-0.0135 2.68425,-0.15619 2.68552,-0.48281 0.001,-0.255 -0.41254,-4.93801 -0.91897,-10.4067 -0.85804,-9.26577 -0.88196,-10.09209 -0.35115,-12.13055 1.10263,-4.23442 3.98703,-7.6007 7.69973,-8.98605 2.21727,-0.82736 8.75981,-1.7231 16.90844,-2.31496 9.35466,-0.67944 25.84336,0.80598 29.87034,2.69095 2.29654,1.07498 4.91037,3.67942 6.074,6.05218 1.25429,2.55763 1.34019,6.19735 0.38649,16.37598 -0.42396,4.52474 -0.77002,8.4419 -0.76903,8.70479 0.001,0.34634 0.75135,0.47947 2.72329,0.48337 2.37367,0.005 2.95172,0.14774 4.52301,1.11919 3.71192,2.294897 5.30721,5.908337 4.80119,10.875027 -0.60274,5.91589 -2.84286,12.25889 -4.66156,13.19938 -1.56027,0.80684 -2.50417,0.6701 -3.71206,-0.53779 -1.26719,-1.26719 -1.37237,-2.44454 -0.3927,-4.39565 1.12221,-2.23497 1.87514,-4.88867 2.26791,-7.99322 0.4224,-3.33869 -0.0678,-4.99649 -1.69678,-5.73872 -1.39739,-0.63669 -2.20365,-0.51593 -3.42674,0.51323 -0.95999,0.80778 -1.14661,1.27386 -1.37188,3.42635 -0.33899,3.23907 -1.06246,5.00354 -2.60791,6.36046 -2.18348,1.91713 -3.49601,2.04222 -10.11422,0.964 -12.76465,-2.07959 -19.21799,-2.0392 -32.89358,0.20585 -5.19895,0.85348 -6.70807,0.65249 -8.78359,-1.16985 -1.54545,-1.35692 -2.26892,-3.12139 -2.60791,-6.36046 -0.22527,-2.15249 -0.41188,-2.61857 -1.37188,-3.42635 -1.27185,-1.07019 -2.13206,-1.16287 -3.62546,-0.39059 -1.53049,0.79144 -1.92032,2.27815 -1.48977,5.68151 0.78884,6.2354 3.2533,11.14127 8.08368,16.09172 l 2.43967,2.50031 h 25.08155 c 15.07398,0 25.45358,0.14145 26.01396,0.3545 1.2642,0.48065 1.7394,1.5357 3.51675,7.80781 1.98855,7.01745 1.99057,8.05549 0.0176,9.07577 -2.83624,1.46667 -3.94882,0.35078 -5.72531,-5.74237 l -1.40768,-4.82821 h -23.02951 -23.02946 l -1.4077,4.82821 c -1.08057,3.70622 -1.62277,4.9974 -2.33324,5.55625 -1.02929,0.80964 -2.11737,0.9107 -3.23335,0.30031 z m 16.76897,-37.3263 c 9.95102,-1.49288 17.75083,-1.38663 29.26167,0.39859 3.25135,0.50426 5.40962,0.68668 5.6092,0.47409 0.32558,-0.34678 3.01537,-28.955827 3.00314,-31.941937 -0.004,-0.87596 -0.24167,-2.04278 -0.52907,-2.59291 -0.68479,-1.31079 -2.38244,-2.89845 -3.58469,-3.35244 -1.36198,-0.51431 -9.23051,-1.479 -15.43224,-1.89202 -8.37315,-0.55763 -23.06096,0.70493 -26.30481,2.26114 -2.0862,1.00084 -3.42112,3.22515 -3.42112,5.70042 0,2.13251 2.54798,30.869747 2.80318,31.615497 0.19569,0.57185 0.44231,0.55262 8.59474,-0.67043 z"
       style="fill:#000000;stroke-width:0.370417" />
    <path
       id="path1496"
       d="m 85.359972,158.36149 c -1.482488,-1.57804 -3.876278,-2.52364 -5.697272,-2.25056 -2.532222,0.37973 -3.391332,-0.16297 -4.649036,-2.93676 -1.021706,-2.25333 -1.25482,-2.50236 -3.158021,-3.37368 -1.130178,-0.51741 -2.054878,-1.10186 -2.054878,-1.29877 0,-0.19691 0.333956,-1.01263 0.742126,-1.81272 l 0.74214,-1.45469 -1.945986,-1.2594 c -2.627548,-1.7005 -3.729138,-2.7222 -3.4398,-3.19038 0.13258,-0.21453 0.552524,-0.39007 0.93317,-0.39007 0.679896,0 2.227512,-1.60602 2.227512,-2.31158 0,-0.19778 -0.41671,-0.85484 -0.92603,-1.46014 -1.718976,-2.04288 -1.242094,-3.36675 2.003232,-5.56114 1.49849,-1.01323 2.50432,-2.32988 2.830954,-3.70574 l 0.237426,-1.00008 -2.591148,0.21724 c -3.610544,0.30269 -5.822503,-0.53011 -8.263655,-3.11128 -1.015798,-1.07405 -2.02167,-2.45418 -2.235282,-3.06693 -0.213612,-0.61275 -0.522144,-1.1141 -0.685608,-1.1141 -0.390908,0 -1.186052,3.35211 -1.186052,4.99999 0,1.79746 -0.542836,1.28172 -1.264774,-1.20163 -0.443142,-1.52435 -0.557886,-2.96523 -0.42364,-5.3197 0.159138,-2.79089 0.381248,-3.63565 1.63674,-6.22492 0.798952,-1.6477 1.342544,-2.99582 1.208004,-2.99582 -0.665378,0 -3.963092,-3.0593 -4.68797,-4.34904 -0.896364,-1.59486 -0.734622,-2.30338 0.310002,-1.35801 0.950306,0.86002 3.136364,1.52755 4.396686,1.34257 l 1.092322,-0.16032 -1.07436,-1.34916 c -1.988098,-2.49661 -2.372048,-7.029713 -0.763644,-9.015991 0.685062,-0.846027 0.685076,-0.845999 0.486122,0.919156 -0.234794,2.083074 0.520772,3.228715 2.129386,3.228715 4.523597,0 6.462919,-11.57324 3.069738,-18.319242 -2.132088,-4.238806 -7.061208,-6.292164 -9.724624,-4.051054 -1.523438,1.281893 -1.665314,1.589996 -2.989126,6.491825 -1.325338,4.907469 -2.726444,7.281603 -4.973736,8.427909 -1.821932,0.929334 -2.10182,0.466501 -1.021552,-1.689317 0.39053,-0.779352 0.821982,-1.917069 0.958762,-2.52826 0.239722,-1.071084 0.191408,-1.047746 -1.336496,0.645477 -2.574278,2.852815 -5.98381,3.67563 -8.761606,2.11442 -1.46734,-0.824691 -3.27201,-3.301032 -1.9985,-2.742299 0.36043,0.15813 1.293376,0.362621 2.073232,0.454426 1.170792,0.13783 1.60307,-0.0105 2.48038,-0.850997 1.31908,-1.263766 1.833034,-3.477859 1.872402,-8.066265 0.02954,-3.436081 0.11368,-3.441585 1.027656,-0.06726 0.221802,0.818828 0.661906,1.818953 0.978012,2.2225 0.53704,0.685583 0.555968,0.636513 0.288554,-0.747946 -0.157388,-0.814916 -0.255906,-2.709483 -0.218904,-4.210151 0.0868,-3.520818 1.40539,-6.314447 3.768716,-7.984603 1.506244,-1.064461 1.826298,-1.139421 4.81541,-1.127842 2.81834,0.01092 3.43567,0.140423 5.153008,1.080994 1.0731,0.587722 2.153298,1.312241 2.40044,1.61004 0.386036,0.465142 0.267666,0.499618 -0.839818,0.244618 -3.310496,-0.76224 -7.100912,0.171865 -9.476432,2.335355 -1.306158,1.189592 -2.369638,2.609098 -2.369638,3.162956 0,0.08838 0.56676,-0.373831 1.259466,-1.027142 1.65991,-1.565493 3.452666,-2.383478 6.189974,-2.824307 2.338322,-0.376576 5.487482,-0.01672 7.09072,0.81027 2.641772,1.362684 5.365963,4.46578 6.925129,7.888371 0.867538,1.904353 1.87096,6.521649 1.87096,8.609259 0,2.635458 -1.242752,7.145635 -3.30386,11.990347 -2.999711,7.050928 -3.518243,8.898418 -3.534763,12.594168 -0.0126,2.77342 0.1183,3.41333 1.097166,5.37105 1.419405,2.83881 3.005129,3.96741 5.358487,3.81379 1.13638,-0.0742 1.647702,-0.26471 1.5813,-0.58923 -0.202356,-0.98901 1.124438,-4.59558 2.373434,-6.45159 0.712151,-1.05825 2.433353,-3.09871 3.824883,-4.53437 4.05993,-4.18865 5.554094,-6.29682 5.578104,-7.87032 0.0098,-0.65977 3.189662,-2.590895 3.596334,-2.184223 0.10682,0.106876 -0.0546,0.950453 -0.358862,1.874603 -0.39886,1.21159 -0.432572,1.68029 -0.12082,1.68029 0.686994,0 3.952551,-2.18851 5.102679,-3.41973 0.971096,-1.039561 1.09809,-1.079314 1.701952,-0.532826 0.584905,0.529326 3.070437,1.730056 3.581255,1.730056 0.11074,0 0.09604,-0.65901 -0.03276,-1.464469 l -0.234178,-1.464468 1.433656,0.745437 c 1.107162,0.575678 2.024148,0.725086 4.026568,0.656073 2.31851,-0.07991 3.06429,0.01036 5.46364,0.660777 1.9669,0.53325 -0.77938,1.96167 -6.64748,3.45755 -7.979677,2.03418 -11.817987,4.79594 -12.722808,9.15441 -0.569828,2.74487 -0.269794,4.71803 1.580587,10.39456 1.473458,4.52022 1.53664,4.90694 1.526826,9.34554 -0.007,2.94556 -0.184534,5.03453 -0.489328,5.74146 l -0.479108,1.11125 -0.74438,-2.40771 c -0.678735,-2.19529 -0.769189,-2.31918 -1.025347,-1.40438 -0.382326,1.36528 -1.77163,3.25647 -2.392278,3.25647 -0.297374,0 -0.554918,-0.48331 -0.623,-1.16917 -0.1001,-1.008 -0.42245,-1.33284 -2.338574,-2.3565 -2.428748,-1.29754 -5.25854,-3.68896 -5.586924,-4.72148 -0.3444,-1.08285 -0.864234,-0.34417 -0.543872,0.77285 0.446418,1.55659 1.33189,3.13223 2.203502,3.92102 0.591668,0.53546 0.782656,1.15816 0.795004,2.59204 0.02968,3.45432 1.814568,6.86966 4.058334,7.7659 0.713048,0.28482 2.281566,0.7212 3.485608,0.96974 2.800071,0.578 4.907589,1.48624 6.439118,2.77494 1.213198,1.02082 2.515324,3.06324 2.171918,3.40666 -0.09996,0.1 -0.942816,-0.15492 -1.873018,-0.5664 -0.930201,-0.41146 -2.459309,-0.86329 -3.398023,-1.00406 l -1.706754,-0.25595 1.329944,1.74233 c 1.16571,1.52714 1.689758,2.79683 1.154384,2.79683 -0.0966,0 -1.38838,-0.47643 -2.870729,-1.05875 -4.480406,-1.76006 -5.760356,-1.83839 -3.99938,-0.24473 0.690746,0.62511 2.412746,4.57822 2.12128,4.86969 -0.0742,0.0743 -0.524524,-0.27955 -1.000566,-0.78627 z m 32.250838,-20.34675 c -0.47138,-0.50176 -1.43198,-1.18511 -2.13465,-1.51855 -1.17057,-0.55548 -1.4002,-0.55723 -2.74067,-0.0209 -1.80978,0.72412 -4.49039,0.75529 -5.81885,0.0676 -0.55013,-0.28477 -1.89211,-1.11821 -2.98215,-1.85209 -1.57755,-1.06209 -2.33737,-1.33432 -3.72405,-1.33432 -1.690314,0 -5.59175,-1.5402 -5.59175,-2.20751 0,-0.15902 0.746914,-0.49826 1.659826,-0.75386 0.912912,-0.25559 1.8501,-0.69398 2.082654,-0.97419 0.348838,-0.42032 0.1071,-0.51087 -1.382024,-0.51758 -1.91331,-0.008 -4.431167,-0.94889 -5.276543,-1.97045 -0.456526,-0.55169 -0.378126,-0.61434 0.768866,-0.61434 2.356717,0 3.995669,-3.07951 2.695223,-5.06423 -0.591122,-0.90218 -0.757596,-0.94606 -2.784907,-0.73417 l -2.156182,0.22537 -0.441154,-1.3367 c -0.258202,-0.78237 -0.373254,-2.50958 -0.277424,-4.16498 0.258692,-4.46887 2.362164,-7.29556 6.374045,-8.56561 1.8683,-0.59145 7.32882,-0.27406 9.21042,0.53536 2.01884,0.86844 4.14148,3.15788 4.84667,5.22751 0.63489,1.86331 0.83159,5.91707 0.30296,6.24378 -0.16801,0.10384 -0.66591,-0.55307 -1.10643,-1.4598 -0.44053,-0.90674 -0.95735,-1.64861 -1.14848,-1.64861 -0.19113,0 -0.34137,1.06501 -0.33386,2.36668 0.007,1.30168 -0.1526,2.66374 -0.35579,3.02683 -0.32963,0.58901 -0.4349,0.53356 -0.97692,-0.5146 -0.75378,-1.45765 -1.17392,-1.48858 -1.45028,-0.10675 -0.32292,1.61455 0.42525,3.75536 1.78901,5.11911 1.10729,1.10729 1.42656,1.22124 3.42191,1.22124 1.21037,0 3.01893,-0.25617 4.01902,-0.56927 2.83713,-0.88822 7.26362,-0.73465 9.55826,0.33159 2.03733,0.94668 3.05364,1.74908 4.04151,3.19082 1.0765,1.57111 0.79471,1.90193 -0.94674,1.11146 -0.86584,-0.39302 -2.31175,-0.71825 -3.21311,-0.72272 l -1.63884,-0.008 0.76208,0.83344 c 1.51149,1.65305 2.48819,4.3524 1.5748,4.3524 -0.21185,0 -1.04475,-0.33649 -1.8509,-0.74777 -0.80614,-0.41126 -2.22478,-0.85179 -3.1525,-0.97895 l -1.68679,-0.23121 0.7644,1.29558 c 0.83573,1.41645 1.17197,4.01763 0.54815,4.24067 -0.21546,0.077 -0.77743,-0.27046 -1.24881,-0.77222 z m 8.86437,-33.54948 c -0.53878,-1.00669 -2.78204,-2.09549 -5.00383,-2.42867 -1.01048,-0.15153 -2.37639,-0.50078 -3.03534,-0.77611 -1.61299,-0.67395 -1.70902,-0.64559 -1.44022,0.42544 0.12782,0.50933 0.0876,0.92604 -0.0895,0.92604 -0.54709,0 -3.18569,-2.05038 -4.21918,-3.278604 -0.5398,-0.641513 -1.0962,-1.166387 -1.23644,-1.166387 -0.14025,0 -0.17621,0.950166 -0.0799,2.111471 l 0.1751,2.11148 -1.04649,-1.25352 c -1.00962,-1.20936 -2.30565,-3.638904 -2.9672,-5.56235 -0.22298,-0.648319 -0.27111,-0.287273 -0.16048,1.203853 0.1743,2.349354 0.0818,2.426163 -2.04829,1.701609 -2.05882,-0.700308 -4.27952,-2.500365 -4.96788,-4.02689 -0.76957,-1.7066 -0.564624,-2.825228 0.95312,-5.202253 0.5947,-0.93142 1.26105,-2.209179 1.48076,-2.839473 0.35016,-1.004451 0.61618,-1.175783 2.15406,-1.387295 1.9477,-0.267883 5.85092,0.491694 8.34566,1.624077 0.83447,0.378784 2.41415,1.465695 3.51039,2.415371 1.09623,0.949676 2.46312,1.969716 3.03754,2.266754 1.86346,0.963634 4.8526,0.541289 7.06503,-0.998242 0.54077,-0.376299 1.17207,-0.684173 1.40289,-0.684173 0.80864,0 3.85338,3.537646 4.71146,5.474203 0.47651,1.075389 0.86638,2.033843 0.86638,2.129897 0,0.45661 -0.89772,0.06069 -2.54369,-1.121813 -2.36441,-1.698662 -2.84564,-1.66586 -1.92871,0.131474 0.95551,1.872955 1.48092,5.493061 0.73078,5.035111 -0.285,-0.17397 -0.78951,-0.65754 -1.12115,-1.07458 -0.68227,-0.857965 -3.6631,-2.633366 -3.64502,-2.171016 0.007,0.165837 0.25991,0.629741 0.56319,1.030904 0.61258,0.810276 1.16813,2.643842 1.43675,4.741832 0.19184,1.49845 -0.26645,1.82535 -0.89982,0.64186 z m -39.09932,-3.64334 c 0.366226,-1.153824 0.322868,-4.537244 -0.06314,-4.923182 -0.240926,-0.240926 -0.519162,0.0042 -0.81459,0.717325 -0.56546,1.365133 -2.486442,3.236763 -3.849566,3.750687 -2.096738,0.79049 -7.29162,0.23749 -7.29162,-0.776214 0,-0.195825 0.163254,-0.255143 0.362796,-0.131824 0.625296,0.386456 3.276518,-0.618609 4.161612,-1.577644 l 0.846636,-0.917371 -0.926044,0.286713 c -1.39636,0.432334 -3.329788,0.263515 -4.305742,-0.375949 -1.15402,-0.756147 -2.437455,-3.330068 -2.278597,-4.569705 0.12544,-0.978901 0.13384,-0.974981 0.717163,0.334754 0.7168,1.609468 2.420754,2.478308 3.611076,1.841273 1.133566,-0.606676 0.958398,-1.492155 -0.741468,-3.747856 -2.481388,-3.292807 -3.964435,-5.746881 -4.447673,-7.359765 -0.39389,-1.314705 -0.374416,-1.580502 0.14462,-1.97489 0.690788,-0.524884 1.511607,-2.493015 1.039723,-2.493015 -0.173739,0 -0.523389,0.250032 -0.777013,0.555625 -0.486458,0.586139 -1.477532,0.695457 -2.885568,0.318276 -0.972804,-0.260588 -1.929858,-1.878883 -1.929858,-3.263215 0,-1.137549 0.573902,-1.252379 0.85659,-0.171388 0.13104,0.501051 0.439474,0.727303 0.876638,0.643025 0.614026,-0.11837 0.674492,-0.594456 0.674492,-5.310655 0,-4.617089 0.08554,-5.325461 0.786954,-6.512084 l 0.786954,-1.331458 -1.186304,-0.428972 c -0.65247,-0.235935 -1.538236,-0.803592 -1.968386,-1.26146 l -0.782068,-0.832487 h 1.802486 c 2.19597,0 3.343438,-0.765011 5.282535,-3.521835 1.479114,-2.102854 1.550066,-2.529758 0.31017,-1.866185 -1.090782,0.583773 -1.033774,-0.398229 0.1393,-2.399986 1.00968,-1.722882 2.554916,-2.571737 4.233166,-2.325421 1.054802,0.154812 1.07814,0.12292 0.970158,-1.324862 -0.184912,-2.479316 0.11382,-2.571576 2.013088,-0.62167 2.068416,2.123548 3.315382,2.573639 8.106295,2.925913 2.720101,0.200009 3.531793,0.390908 3.815181,0.897282 0.197974,0.353773 0.560028,0.643353 0.804566,0.643514 0.688884,4.46e-4 5.076488,2.153896 5.061698,2.484292 -0.007,0.161448 -0.25134,0.710261 -0.542498,1.219583 -0.291144,0.509323 -0.535276,1.685949 -0.542486,2.614723 -0.007,0.928775 -0.257866,2.012244 -0.556976,2.407709 -0.29911,0.395465 -0.54915,0.519256 -0.555632,0.27509 -0.007,-0.244164 -0.40593,-0.869243 -0.887684,-1.389062 -1.482236,-1.599357 -3.801476,-1.150734 -4.885201,0.944974 -1.15199,2.227699 0.579697,5.147816 3.052769,5.147816 1.07695,0 1.323728,-0.16785 1.658468,-1.128083 0.58289,-1.672107 1.160838,-1.155935 1.848658,1.651093 0.3507,1.431183 0.985512,2.906845 1.481672,3.444224 0.80108,0.86763 0.8109,0.924445 0.12726,0.736044 -1.861604,-0.513024 -3.819672,-0.636854 -4.711108,-0.297937 -0.751982,0.28591 -1.591632,0.175807 -3.687543,-0.483539 -4.589649,-1.443842 -4.750285,-1.562656 -4.756809,-3.518238 -0.0056,-1.846804 -0.548912,-3.247594 -0.869946,-2.245266 -0.09604,0.299884 -0.268394,1.211994 -0.38297,2.026911 -0.11466,0.814916 -0.314426,1.940057 -0.444094,2.500312 -0.191296,0.826535 -0.10766,1.018647 0.443268,1.018647 0.373464,0 1.393014,0.272677 2.265677,0.605948 1.335446,0.510013 1.586662,0.766742 1.586662,1.621519 0,2.124769 2.480016,2.586208 4.719455,0.878114 1.380876,-1.053247 2.078636,-0.821226 2.736874,0.910061 0.318822,0.838542 0.385168,0.857807 1.009232,0.293037 0.999628,-0.90465 2.013352,-0.735389 3.225862,0.538615 1.71642,1.803466 2.18973,1.941302 3.96307,1.154104 1.43925,-0.638887 3.51284,-2.604308 4.60402,-4.36386 0.40563,-0.654052 0.44301,-0.658197 0.46303,-0.05137 0.0126,0.363068 -0.22825,1.258536 -0.53384,1.989924 -0.693,1.658561 -0.69903,2.480458 -0.0279,3.77852 0.75182,1.45383 2.04703,1.905804 5.46145,1.905804 2.97602,0 2.98842,0.0041 2.46323,0.794993 -0.29032,0.437243 -1.34859,1.224843 -2.35171,1.750221 -2.02542,1.060801 -3.62638,1.155448 -10.40118,0.614915 l -3.74473,-0.298781 -0.18137,1.88748 c -0.12922,1.345302 -0.49001,2.2729 -1.25588,3.229296 -0.590986,0.738003 -1.4079,1.757378 -1.815356,2.265277 -0.487004,0.607061 -0.740838,1.478232 -0.740838,2.542603 0,1.347381 0.216664,1.84268 1.290842,2.950948 0.709968,0.732494 1.668412,1.426572 2.129902,1.542394 0.46147,0.115822 0.83905,0.359212 0.83905,0.540855 0,0.499044 -2.08943,0.395794 -3.444042,-0.170191 -1.20491,-0.503447 -3.59387,-2.902382 -3.59387,-3.608885 0,-0.208663 -0.13916,-0.293377 -0.30926,-0.188258 -0.170086,0.105126 -0.160678,1.300138 0.02086,2.655583 0.181608,1.355445 0.241598,2.553045 0.13328,2.661328 -0.276738,0.276738 -1.568308,-1.300976 -2.499139,-3.052824 l -0.785274,-1.477875 -0.45388,1.537235 c -0.663026,2.245502 -2.631664,4.937473 -3.610783,4.937473 -0.178514,0 -0.227626,-0.30546 -0.1092,-0.67879 z m -1.01738,-9.322451 c 0.504518,-1.011906 0.670502,-2.460766 0.756238,-6.601175 0.06888,-3.328458 -0.02282,-5.222712 -0.246274,-5.084613 -0.392532,0.2426 -0.54593,1.287794 -1.12518,7.66678 -0.21553,2.373469 -0.647514,4.957127 -0.959966,5.74147 l -0.568106,1.426082 0.74844,-0.926044 c 0.411642,-0.509327 1.039332,-1.509452 1.394848,-2.2225 z m 7.822514,-5.366977 c 0.08414,-1.320865 0.03094,-3.19564 -0.11816,-4.166176 -0.23982,-1.561354 -0.309162,-1.663796 -0.601944,-0.889422 -0.389228,1.029408 -0.460768,2.285439 -0.326144,5.725519 0.126,3.218075 0.82726,2.769011 1.04622,-0.669921 z M 82.459326,83.761704 C 82.83314,81.772591 82.68922,77.095337 82.099022,72.052551 l -0.26012,-2.2225 -0.997416,1.666875 c -0.548576,0.916782 -1.51802,3.583782 -2.154306,5.926666 -0.6363,2.342886 -1.249906,4.593166 -1.363572,5.000629 -0.310492,1.113049 1.48057,-1.346468 2.29376,-3.149804 1.09165,-2.420832 1.481102,-1.337359 1.481102,4.120466 0,4.333903 0.04928,4.702439 0.485142,3.634071 0.266826,-0.653912 0.660884,-2.124178 0.875714,-3.26725 z M 75.54222,72.015357 c 0.814926,-1.623611 1.76568,-3.780326 2.112796,-4.792701 0.347102,-1.012374 1.20302,-2.465067 1.90204,-3.228205 1.503362,-1.641292 0.9464,-1.81542 -1.088528,-0.340317 -1.648094,1.194699 -3.207554,3.828141 -4.00267,6.759273 -0.29981,1.105258 -0.722022,2.591866 -0.938238,3.303575 -0.488207,1.607048 -0.489719,1.57667 0.06986,1.398122 0.25466,-0.08124 1.129772,-1.476133 1.944684,-3.099747 z M 90.780955,56.637399 c 0.4739,-0.393305 0.471772,-0.51851 -0.01708,-1.007381 -0.464744,-0.46474 -0.800814,-0.485582 -2.006256,-0.124418 -0.796419,0.238607 -1.803719,0.433832 -2.238475,0.433832 -1.112426,0 -0.983066,0.605543 0.228186,1.06812 1.197532,0.457338 3.265179,0.267599 4.033625,-0.370148 z m 21.297455,21.691852 c -0.6388,-0.812109 -0.71439,-1.304975 -0.53264,-3.472905 0.32911,-3.925735 -0.49902,-6.884297 -1.1741,-4.194549 -0.51877,2.066972 -5.07613,6.482228 -6.06197,5.872948 -0.20317,-0.125566 0.12712,-1.437543 0.77816,-3.091013 0.95214,-2.418178 1.15826,-3.524497 1.30237,-6.990319 l 0.1712,-4.117471 -1.77908,-4.031696 c -1.60245,-3.631443 -1.78157,-4.313729 -1.80418,-6.872583 -0.0224,-2.537864 0.0736,-2.946468 0.90093,-3.830778 0.50932,-0.544446 1.20151,-1.138452 1.53818,-1.320018 0.53344,-0.287686 0.58736,-0.145404 0.4194,1.106868 -0.13482,1.005326 0.0112,1.782326 0.48637,2.586626 0.37351,0.63231 0.76818,1.14604 0.87706,1.14163 0.10892,-0.0042 0.44797,-0.544558 0.75358,-1.200346 0.6636,-1.424038 2.6965,-2.866766 4.03675,-2.864834 0.53013,7.7e-4 1.54728,0.358526 2.26032,0.795018 l 1.29646,0.793646 -1.5783,0.673176 c -2.04924,0.87402 -2.88974,2.754886 -1.84805,4.135524 0.42472,0.562926 0.60487,0.566355 2.17824,0.04147 1.6297,-0.543686 1.80978,-0.531541 3.61157,0.243566 1.95148,0.839505 2.41999,1.619683 1.20436,2.00551 -0.38059,0.120792 -0.98256,0.54071 -1.3377,0.933145 -0.61569,0.680322 -0.60935,0.772393 0.13636,1.978953 1.08069,1.748575 0.98552,2.521759 -0.49847,4.049773 -1.14502,1.178982 -1.2453,1.441549 -0.94731,2.48054 0.39971,1.393712 1.49526,2.355601 3.61693,3.175672 0.86584,0.334668 1.57427,0.741946 1.57427,0.905065 0,0.433144 -1.41672,0.742564 -3.42636,0.748342 -0.96771,0.0028 -1.75948,0.154477 -1.75948,0.337101 0,0.450744 2.19883,2.29141 3.73335,3.125237 1.13209,0.61515 1.18558,0.715133 0.56761,1.060969 -0.71762,0.401599 -3.99103,0.230666 -5.18983,-0.271008 -0.62492,-0.261514 -0.67527,-0.173651 -0.44981,0.785084 0.27916,1.187081 2.14364,3.116841 3.0114,3.116841 0.72884,0 0.70429,0.602283 -0.0361,0.886411 -0.32225,0.123662 -1.64365,0.224839 -2.93644,0.224839 -2.07955,0 -2.43637,-0.109116 -3.095,-0.946425 z"
       style="fill:#000000;stroke-width:0.370416" />
    <path
       style="fill:#000000;stroke-width:0.370417"
       d="m 215.71326,158.3615 c 1.48249,-1.57803 3.87628,-2.52364 5.69727,-2.25056 2.53223,0.37973 3.39133,-0.16297 4.64904,-2.93677 1.02171,-2.25332 1.25482,-2.50236 3.15802,-3.37367 1.13018,-0.51742 2.05488,-1.10185 2.05488,-1.29877 0,-0.19691 -0.33396,-1.01263 -0.74213,-1.81272 l -0.74214,-1.4547 1.94599,-1.2594 c 2.62755,-1.70049 3.72914,-2.7222 3.4398,-3.19036 -0.13258,-0.21454 -0.55252,-0.39008 -0.93317,-0.39008 -0.6799,0 -2.22751,-1.60602 -2.22751,-2.31158 0,-0.19778 0.41671,-0.85484 0.92603,-1.46015 1.71897,-2.04288 1.24209,-3.36674 -2.00323,-5.56112 -1.49849,-1.01325 -2.50432,-2.32988 -2.83096,-3.70576 l -0.23742,-1.00007 2.59114,0.21724 c 3.61055,0.30269 5.82251,-0.53011 8.26366,-3.11128 1.0158,-1.07405 2.02167,-2.45418 2.23529,-3.06693 0.21361,-0.61275 0.52214,-1.1141 0.6856,-1.1141 0.39091,0 1.18606,3.3521 1.18606,4.99999 0,1.79746 0.54283,1.28171 1.26477,-1.20164 0.44314,-1.52434 0.55788,-2.96522 0.42364,-5.31969 -0.15914,-2.7909 -0.38125,-3.63565 -1.63674,-6.22492 -0.79895,-1.6477 -1.34254,-2.99582 -1.208,-2.99582 0.66537,0 3.96308,-3.0593 4.68796,-4.34904 0.89636,-1.59486 0.73462,-2.30338 -0.31,-1.35801 -0.9503,0.86002 -3.13636,1.52755 -4.39668,1.34257 l -1.09232,-0.16032 1.07436,-1.34917 c 1.98809,-2.4966 2.37204,-7.029706 0.76364,-9.015984 -0.68506,-0.846027 -0.68508,-0.845999 -0.48612,0.919156 0.23479,2.083074 -0.52077,3.228715 -2.12939,3.228715 -4.5236,0 -6.46292,-11.57324 -3.06974,-18.319237 2.13209,-4.23881 7.06121,-6.292169 9.72462,-4.051056 1.52344,1.281891 1.66532,1.589996 2.98913,6.491822 1.32534,4.907469 2.72644,7.281603 4.97374,8.427909 1.82192,0.929334 2.10181,0.466501 1.02154,-1.689317 -0.39053,-0.779352 -0.82197,-1.917069 -0.95875,-2.52826 -0.23973,-1.071084 -0.19141,-1.047746 1.33648,0.645477 2.57428,2.852815 5.98381,3.67563 8.76161,2.11442 1.46734,-0.824691 3.27201,-3.301032 1.9985,-2.742299 -0.36043,0.15813 -1.29338,0.362621 -2.07323,0.454426 -1.17079,0.13783 -1.60307,-0.0105 -2.48038,-0.850997 -1.31908,-1.263766 -1.83304,-3.477859 -1.8724,-8.06626 -0.0295,-3.436085 -0.11368,-3.441587 -1.02766,-0.06727 -0.2218,0.818825 -0.66191,1.81895 -0.97801,2.2225 -0.53704,0.68558 -0.55597,0.63651 -0.28856,-0.74795 0.15739,-0.814912 0.25591,-2.709483 0.21891,-4.210152 -0.0868,-3.520818 -1.40539,-6.314446 -3.76871,-7.984603 -1.50625,-1.064461 -1.8263,-1.13942 -4.81541,-1.127841 -2.81834,0.01093 -3.43567,0.140423 -5.15301,1.080993 -1.07309,0.587723 -2.15329,1.312241 -2.40043,1.610042 -0.38604,0.465141 -0.26767,0.499618 0.83981,0.244617 3.31049,-0.762239 7.10091,0.171864 9.47643,2.335355 1.30616,1.189592 2.36964,2.609101 2.36964,3.162955 0,0.08838 -0.56676,-0.373828 -1.25947,-1.027145 -1.65991,-1.565487 -3.45266,-2.383474 -6.18997,-2.824303 -2.33832,-0.376577 -5.48748,-0.01671 -7.09072,0.810269 -2.64177,1.362684 -5.36596,4.465777 -6.92513,7.888373 -0.86754,1.90435 -1.87096,6.521647 -1.87096,8.609257 0,2.635458 1.24275,7.145635 3.30386,11.990347 2.99971,7.050921 3.51825,8.898411 3.53476,12.594161 0.0126,2.77343 -0.1183,3.41334 -1.09716,5.37105 -1.41941,2.83881 -3.00513,3.96742 -5.35849,3.81379 -1.13638,-0.0742 -1.6477,-0.26471 -1.5813,-0.58923 0.20236,-0.98901 -1.12444,-4.59558 -2.37344,-6.45158 -0.71215,-1.05826 -2.43336,-3.09872 -3.82488,-4.53438 -4.05993,-4.18865 -5.55409,-6.29682 -5.57811,-7.87032 -0.01,-0.65977 -3.18966,-2.590888 -3.59633,-2.184216 -0.10682,0.106876 0.0546,0.950446 0.35887,1.874606 0.39886,1.21158 0.43257,1.68028 0.12082,1.68028 -0.68701,0 -3.95256,-2.18851 -5.10268,-3.419723 -0.97111,-1.039561 -1.0981,-1.079314 -1.70196,-0.532826 -0.5849,0.529326 -3.07043,1.730049 -3.58126,1.730049 -0.11073,0 -0.096,-0.65901 0.0328,-1.464462 l 0.23419,-1.464468 -1.43367,0.745437 c -1.10715,0.575678 -2.02414,0.725086 -4.02656,0.656073 -2.31852,-0.07991 -3.06429,0.01036 -5.46364,0.66077 -1.9669,0.53325 0.77938,1.96167 6.64748,3.45756 7.97967,2.03417 11.81799,4.79594 12.72281,9.1544 0.56982,2.74488 0.2698,4.71803 -1.58058,10.39456 -1.47346,4.52022 -1.53664,4.90694 -1.52683,9.34555 0.007,2.94555 0.18453,5.03452 0.48933,5.74145 l 0.47911,1.11125 0.74438,-2.4077 c 0.67873,-2.1953 0.76918,-2.31919 1.02534,-1.40439 0.38233,1.36528 1.77163,3.25647 2.39228,3.25647 0.29737,0 0.55492,-0.4833 0.623,-1.16916 0.10009,-1.008 0.42245,-1.33285 2.33857,-2.3565 2.42874,-1.29755 5.25854,-3.68897 5.58693,-4.72148 0.3444,-1.08286 0.86423,-0.34417 0.54386,0.77284 -0.44641,1.55659 -1.33188,3.13223 -2.20349,3.92102 -0.59167,0.53546 -0.78266,1.15817 -0.79501,2.59204 -0.0297,3.45433 -1.81457,6.86966 -4.05833,7.7659 -0.71306,0.28482 -2.28157,0.7212 -3.48561,0.96974 -2.80007,0.578 -4.90759,1.48624 -6.43912,2.77494 -1.21319,1.02082 -2.51532,3.06324 -2.17191,3.40666 0.1,0.1 0.94281,-0.15492 1.87301,-0.5664 0.9302,-0.41146 2.45931,-0.86329 3.39802,-1.00406 l 1.70675,-0.25594 -1.32994,1.74232 c -1.1657,1.52715 -1.68976,2.79683 -1.15438,2.79683 0.0966,0 1.38838,-0.47642 2.87073,-1.05875 4.4804,-1.76006 5.76036,-1.83839 3.99938,-0.24473 -0.69074,0.62511 -2.41274,4.57822 -2.12128,4.86969 0.0742,0.0743 0.52452,-0.27955 1.00057,-0.78626 z m -32.25083,-20.34675 c 0.47138,-0.50176 1.43197,-1.18511 2.13465,-1.51855 1.17057,-0.55548 1.40019,-0.55723 2.74067,-0.0209 1.80978,0.72412 4.49038,0.75528 5.81884,0.0676 0.55013,-0.28478 1.89212,-1.11821 2.98216,-1.85209 1.57755,-1.0621 2.33737,-1.33433 3.72404,-1.33433 1.69032,0 5.59175,-1.54019 5.59175,-2.2075 0,-0.15902 -0.74691,-0.49826 -1.65982,-0.75386 -0.91291,-0.2556 -1.8501,-0.69398 -2.08266,-0.97418 -0.34883,-0.42033 -0.1071,-0.51088 1.38203,-0.51759 1.91331,-0.008 4.43116,-0.94889 5.27653,-1.97046 0.45653,-0.55168 0.37814,-0.61433 -0.76886,-0.61433 -2.35671,0 -3.99566,-3.07951 -2.69522,-5.06423 0.59112,-0.90218 0.75759,-0.94606 2.78491,-0.73417 l 2.15618,0.22537 0.44116,-1.33671 c 0.2582,-0.78237 0.37325,-2.50957 0.27741,-4.16498 -0.25868,-4.46887 -2.36216,-7.29556 -6.37404,-8.5656 -1.8683,-0.59145 -7.32881,-0.27406 -9.21041,0.53536 -2.01885,0.86844 -4.14148,3.15787 -4.84668,5.22751 -0.63488,1.86331 -0.83158,5.91707 -0.30296,6.24378 0.16802,0.10384 0.66591,-0.55307 1.10644,-1.45981 0.44052,-0.90673 0.95734,-1.6486 1.14847,-1.6486 0.19113,0 0.34138,1.06501 0.33386,2.36668 -0.007,1.30167 0.1526,2.66374 0.3558,3.02682 0.32963,0.58902 0.43489,0.53357 0.97692,-0.51459 0.75377,-1.45766 1.17391,-1.48858 1.45027,-0.10675 0.32292,1.61455 -0.42525,3.75536 -1.789,5.11911 -1.10729,1.10729 -1.42656,1.22123 -3.42191,1.22123 -1.21037,0 -3.01893,-0.25617 -4.01902,-0.56926 -2.83713,-0.88822 -7.26362,-0.73465 -9.55827,0.33159 -2.03733,0.94668 -3.05366,1.74907 -4.04153,3.19082 -1.07651,1.57111 -0.79472,1.90193 0.94674,1.11146 0.86585,-0.39302 2.31177,-0.71826 3.21313,-0.72272 l 1.63885,-0.008 -0.76208,0.83343 c -1.5115,1.65305 -2.48821,4.35241 -1.57481,4.35241 0.21185,0 1.04476,-0.33649 1.8509,-0.74777 0.80615,-0.41127 2.22479,-0.85179 3.15251,-0.97895 l 1.68679,-0.23121 -0.7644,1.29557 c -0.83573,1.41645 -1.17197,4.01764 -0.54816,4.24067 0.21546,0.077 0.77744,-0.27045 1.24882,-0.77221 z m -8.86439,-33.54949 c 0.53878,-1.00668 2.78205,-2.09548 5.00385,-2.42866 1.01047,-0.15153 2.37638,-0.50078 3.03534,-0.77611 1.61299,-0.67395 1.70902,-0.64559 1.44022,0.42544 -0.12782,0.50932 -0.0876,0.92604 0.0895,0.92604 0.54709,0 3.18568,-2.05038 4.21918,-3.278607 0.5398,-0.641513 1.0962,-1.166387 1.23644,-1.166387 0.14025,0 0.1762,0.950166 0.0799,2.111474 l -0.1751,2.11147 1.04648,-1.25351 c 1.00963,-1.209363 2.30565,-3.638907 2.96721,-5.562353 0.22297,-0.648319 0.27111,-0.287273 0.16048,1.203853 -0.1743,2.349354 -0.0818,2.426163 2.04828,1.701609 2.05882,-0.700308 4.27951,-2.500365 4.96789,-4.02689 0.76956,-1.7066 0.56461,-2.825228 -0.95312,-5.202253 -0.59471,-0.93142 -1.26105,-2.209179 -1.48078,-2.839473 -0.35014,-1.004451 -0.61617,-1.175783 -2.15404,-1.387295 -1.94771,-0.267883 -5.85092,0.491694 -8.34567,1.624077 -0.83447,0.378784 -2.41414,1.465695 -3.51039,2.415371 -1.09622,0.949676 -2.46311,1.969716 -3.03753,2.266754 -1.86346,0.963634 -4.85261,0.541289 -7.06506,-0.998242 -0.54077,-0.376299 -1.17207,-0.684173 -1.40289,-0.684173 -0.80864,0 -3.85341,3.537646 -4.71149,5.474203 -0.47651,1.075389 -0.86639,2.033843 -0.86639,2.129897 0,0.45661 0.89773,0.06069 2.54371,-1.121813 2.36442,-1.698662 2.84566,-1.66586 1.92873,0.131474 -0.95552,1.872955 -1.48094,5.493064 -0.7308,5.035114 0.285,-0.17398 0.78953,-0.65754 1.12116,-1.07458 0.68227,-0.857968 3.66312,-2.633369 3.64505,-2.171019 -0.007,0.165837 -0.25991,0.629741 -0.5632,1.030904 -0.61259,0.810276 -1.16814,2.643835 -1.43676,4.741835 -0.19184,1.49844 0.26645,1.82534 0.89983,0.64186 z m 39.09933,-3.64333 c -0.36622,-1.153827 -0.32287,-4.537247 0.0631,-4.923185 0.24092,-0.240926 0.51916,0.0042 0.81459,0.717325 0.56546,1.365133 2.48644,3.236763 3.84956,3.75069 2.09674,0.79048 7.29163,0.23749 7.29163,-0.776217 0,-0.195825 -0.16325,-0.255143 -0.3628,-0.131824 -0.62529,0.386456 -3.27651,-0.618609 -4.16161,-1.577644 l -0.84664,-0.917371 0.92605,0.286713 c 1.39636,0.432334 3.32978,0.263515 4.30574,-0.375949 1.15402,-0.756147 2.43745,-3.330068 2.2786,-4.569705 -0.12545,-0.978901 -0.13385,-0.974981 -0.71716,0.334754 -0.71681,1.609468 -2.42077,2.478308 -3.61109,1.841273 -1.13356,-0.606676 -0.9584,-1.492155 0.74147,-3.747856 2.48139,-3.292807 3.96444,-5.746881 4.44768,-7.359765 0.39389,-1.314705 0.37442,-1.580502 -0.14462,-1.974888 -0.69079,-0.524881 -1.51161,-2.493015 -1.03973,-2.493015 0.17374,0 0.52339,0.250033 0.77702,0.555625 0.48645,0.586138 1.47753,0.695457 2.88557,0.318276 0.9728,-0.260589 1.92986,-1.878884 1.92986,-3.263218 0,-1.137551 -0.5739,-1.252379 -0.85659,-0.171388 -0.13104,0.501053 -0.43948,0.727307 -0.87664,0.643027 -0.61403,-0.11837 -0.67449,-0.594454 -0.67449,-5.310657 0,-4.617087 -0.0855,-5.325461 -0.78696,-6.512083 l -0.78695,-1.331458 1.1863,-0.428972 c 0.65247,-0.235935 1.53824,-0.803592 1.96839,-1.26146 l 0.78207,-0.832487 h -1.80249 c -2.19597,0 -3.34344,-0.765011 -5.28253,-3.521835 -1.47913,-2.102854 -1.55007,-2.529758 -0.31017,-1.866185 1.09077,0.583773 1.03376,-0.398229 -0.13931,-2.399986 -1.00968,-1.722883 -2.55492,-2.571738 -4.23317,-2.325422 -1.0548,0.154812 -1.07814,0.12292 -0.97016,-1.324862 0.18492,-2.479316 -0.11382,-2.571576 -2.01308,-0.62167 -2.06841,2.123548 -3.31539,2.57364 -8.1063,2.925913 -2.72009,0.20001 -3.53178,0.390908 -3.81518,0.897283 -0.19797,0.353773 -0.56003,0.643353 -0.80457,0.643514 -0.68888,4.45e-4 -5.07648,2.153896 -5.06169,2.484292 0.007,0.161448 0.25134,0.710261 0.54249,1.219583 0.29115,0.509323 0.53528,1.685949 0.5425,2.614723 0.007,0.928775 0.25786,2.012244 0.55697,2.407709 0.29911,0.395465 0.54915,0.519256 0.55563,0.27509 0.007,-0.244164 0.40593,-0.869243 0.88769,-1.389062 1.48223,-1.599357 3.80147,-1.150734 4.88519,0.944974 1.15199,2.227699 -0.57969,5.147816 -3.05277,5.147816 -1.07694,0 -1.32372,-0.16785 -1.65846,-1.128083 -0.58289,-1.672107 -1.16084,-1.155935 -1.84865,1.651093 -0.35071,1.431183 -0.98552,2.906845 -1.48168,3.444225 -0.80108,0.867629 -0.81089,0.924441 -0.12727,0.736043 1.86162,-0.513023 3.81968,-0.636853 4.71111,-0.297934 0.75199,0.285908 1.59164,0.175805 3.68755,-0.483546 4.58965,-1.443837 4.75028,-1.562653 4.75681,-3.518234 0.006,-1.846805 0.54891,-3.247594 0.86995,-2.245266 0.096,0.299884 0.26839,1.211994 0.38297,2.026911 0.11465,0.814916 0.31443,1.940057 0.44409,2.500312 0.19129,0.826535 0.10766,1.018646 -0.44326,1.018646 -0.37348,0 -1.39303,0.272679 -2.26569,0.605949 -1.33544,0.510013 -1.58666,0.766745 -1.58666,1.621515 0,2.124773 -2.48002,2.586213 -4.71946,0.878115 -1.38086,-1.053248 -2.07863,-0.821226 -2.73687,0.910063 -0.31881,0.838544 -0.38517,0.857808 -1.00923,0.293034 -0.99963,-0.904645 -2.01335,-0.735385 -3.22587,0.538622 -1.71641,1.803468 -2.18972,1.941298 -3.96305,1.154099 -1.43926,-0.638883 -3.51284,-2.604303 -4.60403,-4.363858 -0.40562,-0.654052 -0.443,-0.658196 -0.46302,-0.05138 -0.0126,0.363069 0.22824,1.258537 0.53383,1.989925 0.693,1.658561 0.69904,2.480459 0.0279,3.778518 -0.75181,1.45383 -2.04702,1.905806 -5.46144,1.905806 -2.97602,0 -2.98843,0.0042 -2.46323,0.794997 0.29032,0.437241 1.34859,1.224838 2.35171,1.750216 2.02542,1.060801 3.62637,1.155448 10.40117,0.614915 l 3.74473,-0.298781 0.18137,1.88748 c 0.12922,1.345302 0.49001,2.2729 1.25588,3.229296 0.59099,0.738003 1.4079,1.757378 1.81536,2.265277 0.487,0.607061 0.74083,1.478232 0.74083,2.542603 0,1.347381 -0.21666,1.84268 -1.29083,2.950948 -0.70998,0.732494 -1.66842,1.426572 -2.12992,1.542394 -0.46146,0.115822 -0.83904,0.359212 -0.83904,0.540855 0,0.499044 2.08943,0.395794 3.44404,-0.170191 1.20491,-0.503447 3.59388,-2.902382 3.59388,-3.608885 0,-0.208663 0.13916,-0.293377 0.30925,-0.188258 0.17008,0.105126 0.16068,1.300138 -0.0209,2.655583 -0.18161,1.355445 -0.2416,2.553045 -0.13327,2.661328 0.27673,0.276738 1.5683,-1.300976 2.49913,-3.052824 l 0.78527,-1.477875 0.45388,1.537235 c 0.66303,2.245502 2.63167,4.937476 3.61079,4.937476 0.17851,0 0.22763,-0.30546 0.10919,-0.67879 z m 1.01738,-9.322454 c -0.50451,-1.011906 -0.6705,-2.460766 -0.75623,-6.601175 -0.0689,-3.328457 0.0228,-5.222713 0.24627,-5.08461 0.39252,0.242599 0.54593,1.28779 1.12518,7.666777 0.21552,2.373469 0.64751,4.957127 0.95997,5.74147 l 0.5681,1.426082 -0.74844,-0.926044 c -0.41164,-0.509327 -1.03934,-1.509452 -1.39485,-2.2225 z m -7.82251,-5.366977 c -0.0841,-1.320865 -0.0309,-3.19564 0.11816,-4.166176 0.23982,-1.561349 0.30916,-1.663794 0.60194,-0.889419 0.38923,1.029405 0.46076,2.285436 0.32614,5.725516 -0.12599,3.218075 -0.82725,2.769011 -1.04621,-0.669921 z m 11.72167,-2.370788 c -0.37382,-1.989113 -0.2299,-6.666365 0.3603,-11.709153 l 0.26012,-2.222499 0.99742,1.666874 c 0.54857,0.916783 1.51802,3.583783 2.1543,5.926664 0.6363,2.342893 1.24991,4.593168 1.36358,5.000631 0.31049,1.113049 -1.48057,-1.346463 -2.29376,-3.149803 -1.09165,-2.420831 -1.48111,-1.337357 -1.48111,4.120465 0,4.333903 -0.0493,4.702439 -0.48514,3.634071 -0.26682,-0.653912 -0.66089,-2.124178 -0.87571,-3.26725 z m 6.9171,-11.746344 c -0.81492,-1.623614 -1.76568,-3.780328 -2.11279,-4.792705 -0.3471,-1.012373 -1.20303,-2.465065 -1.90204,-3.228204 -1.50336,-1.641292 -0.9464,-1.81542 1.08852,-0.340317 1.6481,1.194699 3.20756,3.828141 4.00268,6.759274 0.29981,1.105253 0.72202,2.591864 0.93823,3.303575 0.48821,1.607046 0.48972,1.576666 -0.0699,1.398124 -0.25466,-0.08124 -1.12977,-1.476139 -1.94468,-3.099747 z M 210.29228,56.637406 c -0.4739,-0.393305 -0.47177,-0.51851 0.0171,-1.007381 0.46474,-0.46474 0.80081,-0.485582 2.00626,-0.124418 0.79641,0.238607 1.80371,0.433832 2.23847,0.433832 1.11243,0 0.98307,0.605543 -0.22819,1.06812 -1.19753,0.457338 -3.26517,0.267599 -4.03362,-0.370148 z m -21.29746,21.691851 c 0.63881,-0.812105 0.71439,-1.304975 0.53265,-3.472905 -0.32912,-3.925734 0.49901,-6.884296 1.17409,-4.194549 0.51877,2.066976 5.07614,6.482228 6.06197,5.872948 0.20317,-0.125566 -0.12712,-1.437543 -0.77816,-3.091013 -0.95214,-2.418177 -1.15826,-3.524496 -1.30236,-6.990318 l -0.17121,-4.117471 1.77908,-4.031696 c 1.60245,-3.631443 1.78157,-4.313729 1.80418,-6.872584 0.0224,-2.537864 -0.0736,-2.946468 -0.90094,-3.830778 -0.50931,-0.544446 -1.2015,-1.138452 -1.53817,-1.320018 -0.53344,-0.287686 -0.58735,-0.145404 -0.4194,1.106868 0.13482,1.005326 -0.0112,1.782326 -0.48637,2.586626 -0.37351,0.63231 -0.76818,1.14604 -0.87706,1.14163 -0.10892,-0.0042 -0.44797,-0.544558 -0.75358,-1.200346 -0.6636,-1.424038 -2.69649,-2.866766 -4.03674,-2.864834 -0.53014,7.7e-4 -1.54728,0.358526 -2.26033,0.795018 l -1.29646,0.793646 1.57831,0.673176 c 2.04923,0.87402 2.88974,2.754886 1.84804,4.135525 -0.42472,0.562926 -0.60487,0.566355 -2.17823,0.04147 -1.6297,-0.543686 -1.80978,-0.531541 -3.61157,0.243566 -1.95149,0.839505 -2.42,1.619683 -1.20436,2.00551 0.38059,0.120792 0.98256,0.54071 1.3377,0.933145 0.61569,0.680322 0.60935,0.772393 -0.13636,1.978953 -1.08069,1.748575 -0.98552,2.521759 0.49847,4.049773 1.14502,1.178982 1.2453,1.441549 0.94731,2.48054 -0.39972,1.393713 -1.49526,2.3556 -3.61693,3.175671 -0.86584,0.334669 -1.57427,0.741948 -1.57427,0.905065 0,0.433145 1.41671,0.742565 3.42636,0.748343 0.96771,0.0028 1.75948,0.154477 1.75948,0.337101 0,0.450744 -2.19883,2.291407 -3.73336,3.12524 -1.13208,0.615146 -1.18557,0.715127 -0.5676,1.060962 0.71761,0.401604 3.99102,0.230671 5.18983,-0.271005 0.62492,-0.261513 0.67526,-0.173649 0.44981,0.785085 -0.27916,1.187083 -2.14364,3.116843 -3.0114,3.116843 -0.72884,0 -0.70429,0.60228 0.0361,0.88641 0.32225,0.123662 1.64365,0.22484 2.93644,0.22484 2.07955,0 2.43636,-0.109116 3.09499,-0.946428 z"
       id="path1496-6" />
  </g>
</svg>
