<?xml version="1.0" standalone="no"?>
<!DOCTYPE svg PUBLIC "-//W3C//DTD SVG 20010904//EN"
 "http://www.w3.org/TR/2001/REC-SVG-20010904/DTD/svg10.dtd">
<svg version="1.0" xmlns="http://www.w3.org/2000/svg"
 width="960.000000pt" height="960.000000pt" viewBox="0 0 960.000000 960.000000"
 preserveAspectRatio="xMidYMid meet">
<metadata>
Created by potrace 1.11, written by Peter Selinger 2001-2013
</metadata>
<g transform="translate(0.000000,960.000000) scale(0.100000,-0.100000)"
fill="#000000" stroke="none">
<path d="M3157 7734 c-1 -1 -49 -5 -107 -8 -171 -9 -238 -16 -400 -42 -25 -3
-58 -8 -75 -10 -33 -4 -70 -12 -70 -14 0 -1 -11 -3 -25 -5 -24 -3 -42 -7 -100
-21 -14 -3 -34 -7 -45 -9 -63 -10 -476 -140 -523 -165 -10 -4 -57 -25 -107
-45 -248 -103 -582 -301 -739 -440 -12 -11 -42 -36 -66 -55 -87 -70 -288 -280
-339 -354 -8 -12 -18 -23 -21 -26 -12 -9 -130 -189 -130 -198 0 -5 -7 -15 -15
-22 -8 -7 -13 -16 -10 -20 3 -5 1 -11 -5 -15 -15 -9 -52 -85 -94 -195 -21 -52
-41 -104 -46 -115 -11 -25 -47 -169 -54 -215 -3 -19 -8 -46 -11 -60 -2 -14 -7
-45 -9 -69 -2 -23 -7 -45 -10 -48 -3 -3 -1 -14 4 -24 6 -10 7 -20 2 -23 -9 -5
-7 -222 3 -281 32 -197 32 -198 51 -265 47 -161 104 -295 187 -440 44 -77 131
-207 147 -220 3 -3 13 -15 21 -27 57 -84 267 -295 381 -384 24 -18 45 -36 48
-39 17 -18 90 -70 99 -70 5 0 11 -3 13 -7 5 -11 127 -93 138 -93 6 0 10 -4 10
-10 0 -5 4 -10 9 -10 5 0 39 -18 75 -40 36 -22 70 -40 75 -40 5 0 11 -3 13 -8
2 -4 29 -23 61 -42 l57 -34 1 -146 c3 -400 8 -640 14 -649 3 -6 1 -11 -5 -11
-6 0 -8 -5 -4 -12 4 -6 8 -176 9 -378 2 -328 3 -368 19 -392 26 -40 88 -55
131 -30 7 4 52 52 100 106 48 55 92 105 98 112 7 6 30 33 52 59 22 26 54 62
70 79 26 28 81 90 152 172 10 12 50 56 88 99 39 42 79 87 90 100 61 68 173
193 195 216 14 15 63 69 110 120 128 139 161 169 190 170 14 0 34 3 45 5 11 2
178 6 370 8 322 3 477 9 515 21 8 2 43 7 78 10 35 4 73 8 85 11 12 2 60 11
107 19 138 24 141 25 225 46 44 12 87 22 95 24 8 2 35 9 60 16 25 7 50 13 55
15 6 1 55 17 110 35 55 18 102 34 105 34 3 1 14 5 25 10 11 4 43 17 70 28 28
10 61 24 75 30 14 6 27 11 30 12 3 0 15 6 26 13 12 6 24 8 28 5 3 -3 6 -2 6 4
0 9 13 15 45 22 3 1 20 9 37 20 18 10 74 39 123 64 83 43 272 158 327 200 13
9 52 38 88 64 36 26 70 52 76 58 6 5 37 33 69 60 59 51 225 214 225 221 0 2 8
12 18 22 24 26 53 61 87 107 17 22 33 44 38 50 41 54 57 78 97 144 87 143 192
389 215 504 11 58 17 84 26 124 29 134 31 439 3 576 -2 12 -7 37 -10 56 -3 19
-10 45 -15 58 -5 13 -8 27 -8 31 1 4 0 10 -1 15 -1 4 -3 10 -4 15 -7 31 -41
129 -48 137 -4 5 -8 16 -8 24 0 24 -155 328 -184 360 -9 10 -16 22 -16 28 0 6
-3 13 -7 15 -5 2 -21 22 -36 44 -15 23 -41 56 -57 75 -17 18 -30 36 -30 40 0
9 -233 245 -291 295 -72 61 -175 141 -239 184 -12 8 -32 22 -44 30 -11 9 -33
22 -48 29 -16 8 -28 18 -28 23 0 4 -5 8 -11 8 -6 0 -23 8 -37 19 -15 10 -67
40 -117 67 -49 26 -91 51 -93 56 -2 4 -10 8 -18 8 -8 0 -38 12 -67 26 -88 45
-381 161 -424 168 -7 1 -16 5 -19 9 -4 4 -17 7 -29 7 -12 0 -25 3 -29 7 -3 4
-12 8 -19 9 -7 1 -39 10 -72 19 -97 27 -168 45 -197 49 -15 3 -31 7 -35 9 -4
3 -51 12 -103 21 -52 9 -106 18 -120 21 -14 3 -45 7 -70 10 -25 3 -56 7 -70
10 -14 2 -61 7 -105 10 -44 4 -102 9 -130 11 -54 5 -444 12 -448 8z"/>
<path d="M6569 6666 c-2 -2 -44 -7 -94 -11 -97 -8 -137 -24 -154 -62 -20 -43
-12 -73 38 -147 27 -40 56 -88 64 -107 8 -19 28 -63 45 -99 75 -161 140 -355
167 -498 2 -13 6 -31 9 -40 20 -67 29 -431 13 -522 -23 -124 -29 -150 -48
-215 -36 -122 -91 -256 -130 -315 -9 -14 -17 -28 -18 -32 -5 -25 -150 -241
-205 -306 -77 -92 -241 -260 -317 -327 -59 -52 -215 -179 -238 -195 -20 -13
-42 -30 -76 -58 -18 -15 -179 -118 -230 -147 -27 -16 -51 -33 -53 -37 -2 -4
-10 -8 -18 -8 -8 0 -14 -3 -14 -7 0 -8 -12 -14 -125 -65 -92 -41 -120 -111
-68 -167 27 -29 253 -151 280 -151 7 0 13 -5 13 -12 0 -6 3 -9 6 -5 4 3 20 -1
36 -9 90 -47 363 -134 493 -158 6 -1 15 -5 21 -9 7 -4 29 -9 50 -12 22 -2 75
-11 119 -20 92 -17 138 -24 215 -31 30 -3 73 -7 95 -10 22 -3 186 -7 364 -9
l325 -3 28 -33 c24 -27 79 -88 207 -228 13 -14 43 -49 68 -78 24 -28 61 -69
81 -90 37 -40 166 -181 199 -220 10 -11 50 -55 90 -99 113 -125 140 -156 185
-211 44 -53 82 -75 119 -68 43 8 55 16 71 43 16 26 17 79 17 533 0 277 0 561
1 630 l0 127 78 47 c144 89 257 159 267 167 6 4 53 40 105 80 96 73 274 244
344 330 33 40 98 133 143 204 63 97 162 336 179 427 3 18 10 52 15 77 29 127
31 387 5 500 -4 14 -9 39 -12 55 -14 78 -39 159 -74 240 -8 19 -22 55 -25 65
-3 12 -40 85 -45 90 -3 3 -12 19 -20 35 -8 17 -19 35 -25 41 -5 7 -22 31 -37
55 -41 66 -52 82 -63 95 -5 6 -23 28 -40 50 -50 63 -256 266 -320 314 -33 25
-62 48 -65 51 -10 12 -186 127 -255 166 -62 36 -256 131 -310 152 -11 5 -31
13 -45 19 -50 20 -136 51 -205 72 -38 12 -77 24 -85 27 -18 7 -27 10 -57 17
-13 3 -31 8 -40 10 -65 17 -162 38 -184 41 -15 1 -39 6 -55 9 -16 3 -46 9 -68
12 -21 3 -47 7 -58 9 -11 3 -46 7 -77 10 -31 4 -72 9 -91 11 -45 7 -505 15
-511 10z"/>
</g>
</svg>
